<svg width="20" height="20" viewBox="0 0 20 20" fill="none" xmlns="http://www.w3.org/2000/svg">
<path d="M9.90372 0.342939C9.93104 0.245645 10.069 0.245645 10.0963 0.34294L12.1769 7.7539C12.1863 7.78748 12.2125 7.81372 12.2461 7.82315L19.6571 9.90372C19.7544 9.93104 19.7544 10.069 19.6571 10.0963L12.2461 12.1769C12.2125 12.1863 12.1863 12.2125 12.1769 12.2461L10.0963 19.6571C10.069 19.7544 9.93104 19.7544 9.90372 19.6571L7.82315 12.2461C7.81372 12.2125 7.78748 12.1863 7.7539 12.1769L0.342939 10.0963C0.245645 10.069 0.245645 9.93104 0.34294 9.90372L7.7539 7.82315C7.78748 7.81372 7.81372 7.78748 7.82315 7.7539L9.90372 0.342939Z" fill="#ED2F7C"/>
</svg>
