<svg width="52" height="52" viewBox="0 0 52 52" fill="none" xmlns="http://www.w3.org/2000/svg">
<path d="M51.8332 11.9208C51.8041 10.8063 51.7179 9.69397 51.5748 8.58829C51.3819 7.61986 51.0605 6.68156 50.619 5.79829C50.1573 4.84015 49.5372 3.96678 48.7848 3.21496C48.0256 2.47149 47.1537 1.85249 46.2015 1.38079C45.3171 0.94794 44.3788 0.635174 43.4115 0.450792C42.3163 0.286749 41.2119 0.19184 40.1048 0.166626H11.9207C10.8061 0.195653 9.69385 0.281878 8.58817 0.424959C7.61974 0.617853 6.68143 0.93931 5.79817 1.38079C4.84002 1.84253 3.96666 2.46262 3.21484 3.21496C2.47137 3.97423 1.85236 4.84606 1.38067 5.79829C0.947818 6.68273 0.635052 7.62103 0.45067 8.58829C0.286627 9.68346 0.191717 10.7879 0.166504 11.895V40.0791C0.195531 41.1936 0.281756 42.3059 0.424837 43.4116C0.617731 44.3801 0.939187 45.3184 1.38067 46.2016C1.84241 47.1598 2.4625 48.0331 3.21484 48.785C3.97411 49.5284 4.84594 50.1474 5.79817 50.6191C6.68261 51.052 7.62091 51.3647 8.58817 51.5491C9.68334 51.7132 10.7877 51.8081 11.8948 51.8333H40.079C41.1935 51.8043 42.3058 51.718 43.4115 51.575C44.3799 51.3821 45.3182 51.0606 46.2015 50.6191C47.1596 50.1574 48.033 49.5373 48.7848 48.785C49.5283 48.0257 50.1473 47.1539 50.619 46.2016C51.0519 45.3172 51.3646 44.3789 51.549 43.4116C51.713 42.3165 51.808 41.2121 51.8332 40.105V11.9208ZM26.594 44.0833C23.4916 44.068 20.4434 43.2682 17.7332 41.7583L7.9165 44.3416L10.4998 34.7316C8.83388 31.9325 7.9423 28.7406 7.9165 25.4833C7.92679 21.8225 9.02011 18.2466 11.0588 15.206C13.0974 12.1654 15.9902 9.79608 19.3729 8.39639C22.7555 6.9967 26.4767 6.62927 30.0678 7.34038C33.6588 8.05149 36.9592 9.80933 39.5531 12.3925C42.1471 14.9757 43.9186 18.2687 44.6447 21.8568C45.3707 25.4448 45.0187 29.1675 43.6331 32.556C42.2475 35.9444 39.8902 38.847 36.8581 40.8983C33.826 42.9496 30.2547 44.0578 26.594 44.0833ZM26.594 10.1641C23.8552 10.1955 21.1736 10.952 18.8222 12.3567C16.4708 13.7614 14.5337 15.7641 13.2079 18.1609C11.8822 20.5577 11.2153 23.263 11.2751 26.0013C11.3348 28.7397 12.1191 31.4133 13.5482 33.75L13.9098 34.3441L12.3598 40.0016L18.2498 38.4L18.8182 38.7358C21.1679 40.1198 23.8412 40.8594 26.5682 40.88C30.679 40.88 34.6215 39.2469 37.5283 36.3401C40.4351 33.4333 42.0682 29.4908 42.0682 25.38C42.0682 21.2691 40.4351 17.3266 37.5283 14.4198C34.6215 11.513 30.679 9.87996 26.5682 9.87996L26.594 10.1641ZM35.6357 32.1741C35.2973 32.7385 34.8443 33.2256 34.3058 33.6038C33.7674 33.9821 33.1555 34.2431 32.5098 34.37C31.5451 34.5463 30.5518 34.4842 29.6165 34.1891C28.7365 33.914 27.8738 33.5862 27.0332 33.2075C23.8395 31.6049 21.1159 29.2017 19.1282 26.2325C18.048 24.8568 17.3927 23.1959 17.2423 21.4533C17.227 20.7294 17.3639 20.0104 17.6443 19.3428C17.9246 18.6753 18.3422 18.0741 18.8698 17.5783C19.0253 17.4021 19.2159 17.2604 19.4295 17.1625C19.6431 17.0646 19.8749 17.0127 20.1098 17.01H20.8332C21.1173 17.01 21.5048 17.01 21.8665 17.8108C22.2282 18.6116 23.184 21.0141 23.3132 21.2466C23.3766 21.3706 23.4097 21.5078 23.4097 21.647C23.4097 21.7863 23.3766 21.9235 23.3132 22.0475C23.199 22.3282 23.0421 22.5896 22.8482 22.8225C22.6157 23.1066 22.3573 23.4425 22.1507 23.6491C21.944 23.8558 21.6857 24.1141 21.944 24.5791C22.6469 25.7654 23.5169 26.8442 24.5273 27.7825C25.6276 28.7547 26.8857 29.5322 28.2473 30.0816C28.7123 30.3141 28.9965 30.2883 29.2548 30.0816C29.5132 29.875 30.4173 28.7383 30.7273 28.2733C31.0373 27.8083 31.3473 27.8858 31.7607 28.0408C32.174 28.1958 34.4732 29.3066 34.9382 29.5391C35.4032 29.7716 35.6873 29.875 35.8165 30.0816C35.9285 30.7577 35.8663 31.4513 35.6357 32.0966V32.1741Z" fill="#ED2F7C"/>
</svg>
