<svg width="52" height="52" viewBox="0 0 52 52" fill="none" xmlns="http://www.w3.org/2000/svg">
<path d="M25.9998 19.5933C24.7327 19.5933 23.4941 19.969 22.4405 20.673C21.3869 21.377 20.5658 22.3776 20.0808 23.5482C19.5959 24.7189 19.4691 26.0071 19.7163 27.2498C19.9635 28.4926 20.5737 29.6342 21.4696 30.5302C22.3656 31.4261 23.5072 32.0363 24.75 32.2835C25.9927 32.5307 27.2809 32.4039 28.4516 31.919C29.6222 31.434 30.6228 30.6129 31.3268 29.5593C32.0308 28.5057 32.4065 27.2671 32.4065 26C32.4065 25.1586 32.2408 24.3255 31.9188 23.5482C31.5969 22.7709 31.125 22.0647 30.53 21.4698C29.9351 20.8748 29.2289 20.4029 28.4516 20.081C27.6743 19.759 26.8412 19.5933 25.9998 19.5933ZM51.6523 13.2641C51.6388 11.2692 51.2714 9.29244 50.5673 7.42579C50.0488 6.05988 49.2465 4.81945 48.2134 3.78635C47.1803 2.75326 45.9399 1.95098 44.574 1.43246C42.7074 0.728407 40.7306 0.36105 38.7357 0.347459C35.4032 0.166626 34.4215 0.166626 25.9998 0.166626C17.5782 0.166626 16.5965 0.166626 13.264 0.347459C11.269 0.36105 9.29231 0.728407 7.42567 1.43246C6.05976 1.95098 4.81933 2.75326 3.78623 3.78635C2.75314 4.81945 1.95086 6.05988 1.43234 7.42579C0.728285 9.29244 0.360928 11.2692 0.347337 13.2641C0.166504 16.5966 0.166504 17.5783 0.166504 26C0.166504 34.4216 0.166504 35.4033 0.347337 38.7358C0.375144 40.7378 0.742004 42.7206 1.43234 44.6C1.94856 45.9596 2.75017 47.1929 3.78317 48.2166C4.81184 49.2559 6.05493 50.0582 7.42567 50.5675C9.29231 51.2715 11.269 51.6389 13.264 51.6525C16.5965 51.8333 17.5782 51.8333 25.9998 51.8333C34.4215 51.8333 35.4032 51.8333 38.7357 51.6525C40.7306 51.6389 42.7074 51.2715 44.574 50.5675C45.9448 50.0582 47.1878 49.2559 48.2165 48.2166C49.2495 47.1929 50.0511 45.9596 50.5673 44.6C51.2707 42.7242 51.638 40.7391 51.6523 38.7358C51.8332 35.4033 51.8332 34.4216 51.8332 26C51.8332 17.5783 51.8332 16.5966 51.6523 13.2641ZM45.0907 33.9308C45.0078 35.525 44.6675 37.0953 44.0832 38.5808C43.5817 39.82 42.8361 40.9457 41.8908 41.891C40.9456 42.8362 39.8199 43.5818 38.5807 44.0833C37.0811 44.6351 35.502 44.9404 33.9048 44.9875H18.0948C16.4976 44.9404 14.9186 44.6351 13.419 44.0833C12.1379 43.6072 10.9811 42.8478 10.0348 41.8616C9.09881 40.9349 8.37593 39.8153 7.9165 38.5808C7.36253 37.0828 7.06557 35.5019 7.03817 33.905V18.095C7.06557 16.498 7.36253 14.9172 7.9165 13.4191C8.39256 12.1381 9.15205 10.9812 10.1382 10.035C11.069 9.10399 12.1874 8.38187 13.419 7.91663C14.9186 7.36484 16.4976 7.0595 18.0948 7.01246H33.9048C35.502 7.0595 37.0811 7.36484 38.5807 7.91663C39.8617 8.39269 41.0186 9.15217 41.9648 10.1383C42.9009 11.0651 43.6237 12.1846 44.0832 13.4191C44.635 14.9187 44.9403 16.4978 44.9873 18.095V26C44.9873 31.3216 45.1682 31.8641 45.0907 33.905V33.9308ZM40.9573 14.7108C40.6498 13.8763 40.1648 13.1185 39.536 12.4897C38.9071 11.8608 38.1493 11.3759 37.3148 11.0683C36.1691 10.6711 34.9623 10.4788 33.7498 10.5H18.2498C17.0312 10.5119 15.8243 10.7393 14.6848 11.1716C13.8632 11.4652 13.1134 11.9304 12.4853 12.5361C11.8573 13.1419 11.3654 13.8744 11.0423 14.685C10.6672 15.8355 10.4839 17.0399 10.4998 18.25V33.75C10.5254 34.9672 10.7524 36.1718 11.1715 37.315C11.4791 38.1494 11.964 38.9072 12.5929 39.5361C13.2217 40.1649 13.9795 40.6499 14.814 40.9575C15.9162 41.3628 17.0761 41.5896 18.2498 41.6291H33.7498C34.9685 41.6172 36.1754 41.3898 37.3148 40.9575C38.1493 40.6499 38.9071 40.1649 39.536 39.5361C40.1648 38.9072 40.6498 38.1494 40.9573 37.315C41.3897 36.1755 41.6171 34.9686 41.629 33.75V18.25C41.6298 17.0301 41.4019 15.8209 40.9573 14.685V14.7108ZM25.9998 35.8683C24.7051 35.8683 23.4231 35.6129 22.2273 35.1166C21.0315 34.6204 19.9453 33.8931 19.031 32.9764C18.1167 32.0597 17.3922 30.9716 16.8991 29.7745C16.406 28.5773 16.1539 27.2947 16.1573 26C16.1573 24.0471 16.7368 22.1381 17.8223 20.5147C18.9078 18.8913 20.4505 17.6265 22.2552 16.8804C24.0599 16.1342 26.0454 15.9403 27.9604 16.3232C29.8754 16.706 31.6337 17.6485 33.0128 19.0312C34.3919 20.4139 35.3297 22.1747 35.7075 24.0906C36.0854 26.0066 35.8863 27.9916 35.1354 29.7943C34.3845 31.5971 33.1156 33.1365 31.4894 34.2178C29.8632 35.299 27.9527 35.8734 25.9998 35.8683ZM36.3332 18.0691C35.7621 18.0087 35.2336 17.739 34.8495 17.3121C34.4654 16.8852 34.2529 16.3313 34.2529 15.757C34.2529 15.1828 34.4654 14.6288 34.8495 14.202C35.2336 13.7751 35.7621 13.5054 36.3332 13.445C36.9042 13.5054 37.4327 13.7751 37.8168 14.202C38.2009 14.6288 38.4134 15.1828 38.4134 15.757C38.4134 16.3313 38.2009 16.8852 37.8168 17.3121C37.4327 17.739 36.9042 18.0087 36.3332 18.0691Z" fill="#ED2F7C"/>
</svg>
